<?xml version="1.0" encoding="UTF-8" standalone="no"?>
<!DOCTYPE svg PUBLIC "-//W3C//DTD SVG 1.1//EN"
 "http://www.w3.org/Graphics/SVG/1.1/DTD/svg11.dtd">
<!-- Generated by graphviz version 2.47.0 (20210316.1410)
 -->
<!-- Title: snakemake_dag Pages: 1 -->
<svg width="278pt" height="260pt"
 viewBox="0.00 0.00 278.00 260.00" xmlns="http://www.w3.org/2000/svg" xmlns:xlink="http://www.w3.org/1999/xlink">
<g id="graph0" class="graph" transform="scale(1 1) rotate(0) translate(4 256)">
<title>snakemake_dag</title>
<polygon fill="white" stroke="transparent" points="-4,4 -4,-256 274,-256 274,4 -4,4"/>
<!-- 0 -->
<g id="node1" class="node">
<title>0</title>
<path fill="none" stroke="#d6d856" stroke-width="2" d="M150,-36C150,-36 120,-36 120,-36 114,-36 108,-30 108,-24 108,-24 108,-12 108,-12 108,-6 114,0 120,0 120,0 150,0 150,0 156,0 162,-6 162,-12 162,-12 162,-24 162,-24 162,-30 156,-36 150,-36"/>
<text text-anchor="middle" x="135" y="-15.5" font-family="sans" font-size="10.00">all</text>
</g>
<!-- 1 -->
<g id="node2" class="node">
<title>1</title>
<path fill="none" stroke="#59d856" stroke-width="2" d="M175,-108C175,-108 95,-108 95,-108 89,-108 83,-102 83,-96 83,-96 83,-84 83,-84 83,-78 89,-72 95,-72 95,-72 175,-72 175,-72 181,-72 187,-78 187,-84 187,-84 187,-96 187,-96 187,-102 181,-108 175,-108"/>
<text text-anchor="middle" x="135" y="-87.5" font-family="sans" font-size="10.00">aggregate_counts</text>
</g>
<!-- 1&#45;&gt;0 -->
<g id="edge1" class="edge">
<title>1&#45;&gt;0</title>
<path fill="none" stroke="grey" stroke-width="2" d="M135,-71.7C135,-63.98 135,-54.71 135,-46.11"/>
<polygon fill="grey" stroke="grey" stroke-width="2" points="138.5,-46.1 135,-36.1 131.5,-46.1 138.5,-46.1"/>
</g>
<!-- 2 -->
<g id="node3" class="node">
<title>2</title>
<path fill="none" stroke="#56d8d8" stroke-width="2" d="M66,-180C66,-180 26,-180 26,-180 20,-180 14,-174 14,-168 14,-168 14,-156 14,-156 14,-150 20,-144 26,-144 26,-144 66,-144 66,-144 72,-144 78,-150 78,-156 78,-156 78,-168 78,-168 78,-174 72,-180 66,-180"/>
<text text-anchor="middle" x="46" y="-159.5" font-family="sans" font-size="10.00">capitalize</text>
</g>
<!-- 2&#45;&gt;1 -->
<g id="edge2" class="edge">
<title>2&#45;&gt;1</title>
<path fill="none" stroke="grey" stroke-width="2" d="M68,-143.7C79.21,-134.88 93,-124.03 105.15,-114.47"/>
<polygon fill="grey" stroke="grey" stroke-width="2" points="107.56,-117.04 113.25,-108.1 103.23,-111.54 107.56,-117.04"/>
</g>
<!-- 3 -->
<g id="node4" class="node">
<title>3</title>
<path fill="none" stroke="#d85656" stroke-width="2" d="M66,-252C66,-252 12,-252 12,-252 6,-252 0,-246 0,-240 0,-240 0,-228 0,-228 0,-222 6,-216 12,-216 12,-216 66,-216 66,-216 72,-216 78,-222 78,-228 78,-228 78,-240 78,-240 78,-246 72,-252 66,-252"/>
<text text-anchor="middle" x="39" y="-237" font-family="sans" font-size="10.00">count_words</text>
<text text-anchor="middle" x="39" y="-226" font-family="sans" font-size="10.00">book: bookB</text>
</g>
<!-- 3&#45;&gt;2 -->
<g id="edge5" class="edge">
<title>3&#45;&gt;2</title>
<path fill="none" stroke="grey" stroke-width="2" d="M40.73,-215.7C41.5,-207.98 42.43,-198.71 43.29,-190.11"/>
<polygon fill="grey" stroke="grey" stroke-width="2" points="46.78,-190.4 44.29,-180.1 39.81,-189.71 46.78,-190.4"/>
</g>
<!-- 4 -->
<g id="node5" class="node">
<title>4</title>
<path fill="none" stroke="#56d8d8" stroke-width="2" d="M155,-180C155,-180 115,-180 115,-180 109,-180 103,-174 103,-168 103,-168 103,-156 103,-156 103,-150 109,-144 115,-144 115,-144 155,-144 155,-144 161,-144 167,-150 167,-156 167,-156 167,-168 167,-168 167,-174 161,-180 155,-180"/>
<text text-anchor="middle" x="135" y="-159.5" font-family="sans" font-size="10.00">capitalize</text>
</g>
<!-- 4&#45;&gt;1 -->
<g id="edge3" class="edge">
<title>4&#45;&gt;1</title>
<path fill="none" stroke="grey" stroke-width="2" d="M135,-143.7C135,-135.98 135,-126.71 135,-118.11"/>
<polygon fill="grey" stroke="grey" stroke-width="2" points="138.5,-118.1 135,-108.1 131.5,-118.1 138.5,-118.1"/>
</g>
<!-- 5 -->
<g id="node6" class="node">
<title>5</title>
<path fill="none" stroke="#d85656" stroke-width="2" d="M162,-252C162,-252 108,-252 108,-252 102,-252 96,-246 96,-240 96,-240 96,-228 96,-228 96,-222 102,-216 108,-216 108,-216 162,-216 162,-216 168,-216 174,-222 174,-228 174,-228 174,-240 174,-240 174,-246 168,-252 162,-252"/>
<text text-anchor="middle" x="135" y="-237" font-family="sans" font-size="10.00">count_words</text>
<text text-anchor="middle" x="135" y="-226" font-family="sans" font-size="10.00">book: bookC</text>
</g>
<!-- 5&#45;&gt;4 -->
<g id="edge6" class="edge">
<title>5&#45;&gt;4</title>
<path fill="none" stroke="grey" stroke-width="2" d="M135,-215.7C135,-207.98 135,-198.71 135,-190.11"/>
<polygon fill="grey" stroke="grey" stroke-width="2" points="138.5,-190.1 135,-180.1 131.5,-190.1 138.5,-190.1"/>
</g>
<!-- 6 -->
<g id="node7" class="node">
<title>6</title>
<path fill="none" stroke="#56d8d8" stroke-width="2" d="M244,-180C244,-180 204,-180 204,-180 198,-180 192,-174 192,-168 192,-168 192,-156 192,-156 192,-150 198,-144 204,-144 204,-144 244,-144 244,-144 250,-144 256,-150 256,-156 256,-156 256,-168 256,-168 256,-174 250,-180 244,-180"/>
<text text-anchor="middle" x="224" y="-159.5" font-family="sans" font-size="10.00">capitalize</text>
</g>
<!-- 6&#45;&gt;1 -->
<g id="edge4" class="edge">
<title>6&#45;&gt;1</title>
<path fill="none" stroke="grey" stroke-width="2" d="M202,-143.7C190.79,-134.88 177,-124.03 164.85,-114.47"/>
<polygon fill="grey" stroke="grey" stroke-width="2" points="166.77,-111.54 156.75,-108.1 162.44,-117.04 166.77,-111.54"/>
</g>
<!-- 7 -->
<g id="node8" class="node">
<title>7</title>
<path fill="none" stroke="#d85656" stroke-width="2" d="M258,-252C258,-252 204,-252 204,-252 198,-252 192,-246 192,-240 192,-240 192,-228 192,-228 192,-222 198,-216 204,-216 204,-216 258,-216 258,-216 264,-216 270,-222 270,-228 270,-228 270,-240 270,-240 270,-246 264,-252 258,-252"/>
<text text-anchor="middle" x="231" y="-237" font-family="sans" font-size="10.00">count_words</text>
<text text-anchor="middle" x="231" y="-226" font-family="sans" font-size="10.00">book: bookA</text>
</g>
<!-- 7&#45;&gt;6 -->
<g id="edge7" class="edge">
<title>7&#45;&gt;6</title>
<path fill="none" stroke="grey" stroke-width="2" d="M229.27,-215.7C228.5,-207.98 227.57,-198.71 226.71,-190.11"/>
<polygon fill="grey" stroke="grey" stroke-width="2" points="230.19,-189.71 225.71,-180.1 223.22,-190.4 230.19,-189.71"/>
</g>
</g>
</svg>
