<?xml version="1.0" encoding="UTF-8" standalone="no"?>
<!DOCTYPE svg PUBLIC "-//W3C//DTD SVG 1.1//EN"
 "http://www.w3.org/Graphics/SVG/1.1/DTD/svg11.dtd">
<!-- Generated by graphviz version 2.47.0 (20210316.1410)
 -->
<!-- Title: snakemake_dag Pages: 1 -->
<svg width="86pt" height="116pt"
 viewBox="0.00 0.00 86.00 116.00" xmlns="http://www.w3.org/2000/svg" xmlns:xlink="http://www.w3.org/1999/xlink">
<g id="graph0" class="graph" transform="scale(1 1) rotate(0) translate(4 112)">
<title>snakemake_dag</title>
<polygon fill="white" stroke="transparent" points="-4,4 -4,-112 82,-112 82,4 -4,4"/>
<!-- 0 -->
<g id="node1" class="node">
<title>0</title>
<path fill="none" stroke="#59d856" stroke-width="2" d="M59,-36C59,-36 19,-36 19,-36 13,-36 7,-30 7,-24 7,-24 7,-12 7,-12 7,-6 13,0 19,0 19,0 59,0 59,0 65,0 71,-6 71,-12 71,-12 71,-24 71,-24 71,-30 65,-36 59,-36"/>
<text text-anchor="middle" x="39" y="-15.5" font-family="sans" font-size="10.00">capitalize</text>
</g>
<!-- 1 -->
<g id="node2" class="node">
<title>1</title>
<path fill="none" stroke="#d85656" stroke-width="2" d="M66,-108C66,-108 12,-108 12,-108 6,-108 0,-102 0,-96 0,-96 0,-84 0,-84 0,-78 6,-72 12,-72 12,-72 66,-72 66,-72 72,-72 78,-78 78,-84 78,-84 78,-96 78,-96 78,-102 72,-108 66,-108"/>
<text text-anchor="middle" x="39" y="-87.5" font-family="sans" font-size="10.00">count_words</text>
</g>
<!-- 1&#45;&gt;0 -->
<g id="edge1" class="edge">
<title>1&#45;&gt;0</title>
<path fill="none" stroke="grey" stroke-width="2" d="M39,-71.7C39,-63.98 39,-54.71 39,-46.11"/>
<polygon fill="grey" stroke="grey" stroke-width="2" points="42.5,-46.1 39,-36.1 35.5,-46.1 42.5,-46.1"/>
</g>
</g>
</svg>
