<?xml version="1.0" encoding="UTF-8" standalone="no"?>
<!DOCTYPE svg PUBLIC "-//W3C//DTD SVG 1.1//EN"
 "http://www.w3.org/Graphics/SVG/1.1/DTD/svg11.dtd">
<!-- Generated by graphviz version 2.47.0 (20210316.1410)
 -->
<!-- Title: snakemake_dag Pages: 1 -->
<svg width="278pt" height="188pt"
 viewBox="0.00 0.00 278.00 188.00" xmlns="http://www.w3.org/2000/svg" xmlns:xlink="http://www.w3.org/1999/xlink">
<g id="graph0" class="graph" transform="scale(1 1) rotate(0) translate(4 184)">
<title>snakemake_dag</title>
<polygon fill="white" stroke="transparent" points="-4,4 -4,-184 274,-184 274,4 -4,4"/>
<!-- 0 -->
<g id="node1" class="node">
<title>0</title>
<path fill="none" stroke="#afd856" stroke-width="2" d="M150,-36C150,-36 120,-36 120,-36 114,-36 108,-30 108,-24 108,-24 108,-12 108,-12 108,-6 114,0 120,0 120,0 150,0 150,0 156,0 162,-6 162,-12 162,-12 162,-24 162,-24 162,-30 156,-36 150,-36"/>
<text text-anchor="middle" x="135" y="-15.5" font-family="sans" font-size="10.00">all</text>
</g>
<!-- 1 -->
<g id="node2" class="node">
<title>1</title>
<path fill="none" stroke="#56d8a9" stroke-width="2" d="M66,-108C66,-108 26,-108 26,-108 20,-108 14,-102 14,-96 14,-96 14,-84 14,-84 14,-78 20,-72 26,-72 26,-72 66,-72 66,-72 72,-72 78,-78 78,-84 78,-84 78,-96 78,-96 78,-102 72,-108 66,-108"/>
<text text-anchor="middle" x="46" y="-87.5" font-family="sans" font-size="10.00">capitalize</text>
</g>
<!-- 1&#45;&gt;0 -->
<g id="edge1" class="edge">
<title>1&#45;&gt;0</title>
<path fill="none" stroke="grey" stroke-width="2" d="M68,-71.7C79.21,-62.88 93,-52.03 105.15,-42.47"/>
<polygon fill="grey" stroke="grey" stroke-width="2" points="107.56,-45.04 113.25,-36.1 103.23,-39.54 107.56,-45.04"/>
</g>
<!-- 2 -->
<g id="node3" class="node">
<title>2</title>
<path fill="none" stroke="#d85656" stroke-width="2" d="M66,-180C66,-180 12,-180 12,-180 6,-180 0,-174 0,-168 0,-168 0,-156 0,-156 0,-150 6,-144 12,-144 12,-144 66,-144 66,-144 72,-144 78,-150 78,-156 78,-156 78,-168 78,-168 78,-174 72,-180 66,-180"/>
<text text-anchor="middle" x="39" y="-165" font-family="sans" font-size="10.00">count_words</text>
<text text-anchor="middle" x="39" y="-154" font-family="sans" font-size="10.00">book: bookA</text>
</g>
<!-- 2&#45;&gt;1 -->
<g id="edge4" class="edge">
<title>2&#45;&gt;1</title>
<path fill="none" stroke="grey" stroke-width="2" d="M40.73,-143.7C41.5,-135.98 42.43,-126.71 43.29,-118.11"/>
<polygon fill="grey" stroke="grey" stroke-width="2" points="46.78,-118.4 44.29,-108.1 39.81,-117.71 46.78,-118.4"/>
</g>
<!-- 3 -->
<g id="node4" class="node">
<title>3</title>
<path fill="none" stroke="#56d8a9" stroke-width="2" d="M155,-108C155,-108 115,-108 115,-108 109,-108 103,-102 103,-96 103,-96 103,-84 103,-84 103,-78 109,-72 115,-72 115,-72 155,-72 155,-72 161,-72 167,-78 167,-84 167,-84 167,-96 167,-96 167,-102 161,-108 155,-108"/>
<text text-anchor="middle" x="135" y="-87.5" font-family="sans" font-size="10.00">capitalize</text>
</g>
<!-- 3&#45;&gt;0 -->
<g id="edge2" class="edge">
<title>3&#45;&gt;0</title>
<path fill="none" stroke="grey" stroke-width="2" d="M135,-71.7C135,-63.98 135,-54.71 135,-46.11"/>
<polygon fill="grey" stroke="grey" stroke-width="2" points="138.5,-46.1 135,-36.1 131.5,-46.1 138.5,-46.1"/>
</g>
<!-- 4 -->
<g id="node5" class="node">
<title>4</title>
<path fill="none" stroke="#d85656" stroke-width="2" d="M162,-180C162,-180 108,-180 108,-180 102,-180 96,-174 96,-168 96,-168 96,-156 96,-156 96,-150 102,-144 108,-144 108,-144 162,-144 162,-144 168,-144 174,-150 174,-156 174,-156 174,-168 174,-168 174,-174 168,-180 162,-180"/>
<text text-anchor="middle" x="135" y="-165" font-family="sans" font-size="10.00">count_words</text>
<text text-anchor="middle" x="135" y="-154" font-family="sans" font-size="10.00">book: bookB</text>
</g>
<!-- 4&#45;&gt;3 -->
<g id="edge5" class="edge">
<title>4&#45;&gt;3</title>
<path fill="none" stroke="grey" stroke-width="2" d="M135,-143.7C135,-135.98 135,-126.71 135,-118.11"/>
<polygon fill="grey" stroke="grey" stroke-width="2" points="138.5,-118.1 135,-108.1 131.5,-118.1 138.5,-118.1"/>
</g>
<!-- 5 -->
<g id="node6" class="node">
<title>5</title>
<path fill="none" stroke="#56d8a9" stroke-width="2" d="M244,-108C244,-108 204,-108 204,-108 198,-108 192,-102 192,-96 192,-96 192,-84 192,-84 192,-78 198,-72 204,-72 204,-72 244,-72 244,-72 250,-72 256,-78 256,-84 256,-84 256,-96 256,-96 256,-102 250,-108 244,-108"/>
<text text-anchor="middle" x="224" y="-87.5" font-family="sans" font-size="10.00">capitalize</text>
</g>
<!-- 5&#45;&gt;0 -->
<g id="edge3" class="edge">
<title>5&#45;&gt;0</title>
<path fill="none" stroke="grey" stroke-width="2" d="M202,-71.7C190.79,-62.88 177,-52.03 164.85,-42.47"/>
<polygon fill="grey" stroke="grey" stroke-width="2" points="166.77,-39.54 156.75,-36.1 162.44,-45.04 166.77,-39.54"/>
</g>
<!-- 6 -->
<g id="node7" class="node">
<title>6</title>
<path fill="none" stroke="#d85656" stroke-width="2" d="M258,-180C258,-180 204,-180 204,-180 198,-180 192,-174 192,-168 192,-168 192,-156 192,-156 192,-150 198,-144 204,-144 204,-144 258,-144 258,-144 264,-144 270,-150 270,-156 270,-156 270,-168 270,-168 270,-174 264,-180 258,-180"/>
<text text-anchor="middle" x="231" y="-165" font-family="sans" font-size="10.00">count_words</text>
<text text-anchor="middle" x="231" y="-154" font-family="sans" font-size="10.00">book: bookC</text>
</g>
<!-- 6&#45;&gt;5 -->
<g id="edge6" class="edge">
<title>6&#45;&gt;5</title>
<path fill="none" stroke="grey" stroke-width="2" d="M229.27,-143.7C228.5,-135.98 227.57,-126.71 226.71,-118.11"/>
<polygon fill="grey" stroke="grey" stroke-width="2" points="230.19,-117.71 225.71,-108.1 223.22,-118.4 230.19,-117.71"/>
</g>
</g>
</svg>
