<?xml version="1.0" encoding="UTF-8" standalone="no"?>
<!DOCTYPE svg PUBLIC "-//W3C//DTD SVG 1.1//EN"
 "http://www.w3.org/Graphics/SVG/1.1/DTD/svg11.dtd">
<!-- Generated by graphviz version 2.47.0 (20210316.1410)
 -->
<!-- Title: snakemake_dag Pages: 1 -->
<svg width="259pt" height="188pt"
 viewBox="0.00 0.00 258.50 188.00" xmlns="http://www.w3.org/2000/svg" xmlns:xlink="http://www.w3.org/1999/xlink">
<g id="graph0" class="graph" transform="scale(1 1) rotate(0) translate(4 184)">
<title>snakemake_dag</title>
<polygon fill="white" stroke="transparent" points="-4,4 -4,-184 254.5,-184 254.5,4 -4,4"/>
<!-- 0 -->
<g id="node1" class="node">
<title>0</title>
<path fill="none" stroke="#afd856" stroke-width="2" d="M139.5,-36C139.5,-36 109.5,-36 109.5,-36 103.5,-36 97.5,-30 97.5,-24 97.5,-24 97.5,-12 97.5,-12 97.5,-6 103.5,0 109.5,0 109.5,0 139.5,0 139.5,0 145.5,0 151.5,-6 151.5,-12 151.5,-12 151.5,-24 151.5,-24 151.5,-30 145.5,-36 139.5,-36"/>
<text text-anchor="middle" x="124.5" y="-15.5" font-family="sans" font-size="10.00">all</text>
</g>
<!-- 1 -->
<g id="node2" class="node">
<title>1</title>
<path fill="none" stroke="#d85656" stroke-width="2" d="M59.5,-108C59.5,-108 29.5,-108 29.5,-108 23.5,-108 17.5,-102 17.5,-96 17.5,-96 17.5,-84 17.5,-84 17.5,-78 23.5,-72 29.5,-72 29.5,-72 59.5,-72 59.5,-72 65.5,-72 71.5,-78 71.5,-84 71.5,-84 71.5,-96 71.5,-96 71.5,-102 65.5,-108 59.5,-108"/>
<text text-anchor="middle" x="44.5" y="-87.5" font-family="sans" font-size="10.00">map</text>
</g>
<!-- 1&#45;&gt;0 -->
<g id="edge1" class="edge">
<title>1&#45;&gt;0</title>
<path fill="none" stroke="grey" stroke-width="2" d="M64.28,-71.7C74.25,-62.97 86.51,-52.24 97.36,-42.75"/>
<polygon fill="grey" stroke="grey" stroke-width="2" points="99.73,-45.32 104.95,-36.1 95.12,-40.06 99.73,-45.32"/>
</g>
<!-- 2 -->
<g id="node3" class="node">
<title>2</title>
<path fill="none" stroke="#56d8a9" stroke-width="2" d="M59,-180C59,-180 12,-180 12,-180 6,-180 0,-174 0,-168 0,-168 0,-156 0,-156 0,-150 6,-144 12,-144 12,-144 59,-144 59,-144 65,-144 71,-150 71,-156 71,-156 71,-168 71,-168 71,-174 65,-180 59,-180"/>
<text text-anchor="middle" x="35.5" y="-165" font-family="sans" font-size="10.00">trim</text>
<text text-anchor="middle" x="35.5" y="-154" font-family="sans" font-size="10.00">smp: smpA</text>
</g>
<!-- 2&#45;&gt;1 -->
<g id="edge4" class="edge">
<title>2&#45;&gt;1</title>
<path fill="none" stroke="grey" stroke-width="2" d="M37.72,-143.7C38.72,-135.98 39.91,-126.71 41.01,-118.11"/>
<polygon fill="grey" stroke="grey" stroke-width="2" points="44.5,-118.47 42.3,-108.1 37.55,-117.58 44.5,-118.47"/>
</g>
<!-- 3 -->
<g id="node4" class="node">
<title>3</title>
<path fill="none" stroke="#d85656" stroke-width="2" d="M139.5,-108C139.5,-108 109.5,-108 109.5,-108 103.5,-108 97.5,-102 97.5,-96 97.5,-96 97.5,-84 97.5,-84 97.5,-78 103.5,-72 109.5,-72 109.5,-72 139.5,-72 139.5,-72 145.5,-72 151.5,-78 151.5,-84 151.5,-84 151.5,-96 151.5,-96 151.5,-102 145.5,-108 139.5,-108"/>
<text text-anchor="middle" x="124.5" y="-87.5" font-family="sans" font-size="10.00">map</text>
</g>
<!-- 3&#45;&gt;0 -->
<g id="edge2" class="edge">
<title>3&#45;&gt;0</title>
<path fill="none" stroke="grey" stroke-width="2" d="M124.5,-71.7C124.5,-63.98 124.5,-54.71 124.5,-46.11"/>
<polygon fill="grey" stroke="grey" stroke-width="2" points="128,-46.1 124.5,-36.1 121,-46.1 128,-46.1"/>
</g>
<!-- 4 -->
<g id="node5" class="node">
<title>4</title>
<path fill="none" stroke="#56d8a9" stroke-width="2" d="M148,-180C148,-180 101,-180 101,-180 95,-180 89,-174 89,-168 89,-168 89,-156 89,-156 89,-150 95,-144 101,-144 101,-144 148,-144 148,-144 154,-144 160,-150 160,-156 160,-156 160,-168 160,-168 160,-174 154,-180 148,-180"/>
<text text-anchor="middle" x="124.5" y="-165" font-family="sans" font-size="10.00">trim</text>
<text text-anchor="middle" x="124.5" y="-154" font-family="sans" font-size="10.00">smp: smpC</text>
</g>
<!-- 4&#45;&gt;3 -->
<g id="edge5" class="edge">
<title>4&#45;&gt;3</title>
<path fill="none" stroke="grey" stroke-width="2" d="M124.5,-143.7C124.5,-135.98 124.5,-126.71 124.5,-118.11"/>
<polygon fill="grey" stroke="grey" stroke-width="2" points="128,-118.1 124.5,-108.1 121,-118.1 128,-118.1"/>
</g>
<!-- 5 -->
<g id="node6" class="node">
<title>5</title>
<path fill="none" stroke="#d85656" stroke-width="2" d="M220.5,-108C220.5,-108 190.5,-108 190.5,-108 184.5,-108 178.5,-102 178.5,-96 178.5,-96 178.5,-84 178.5,-84 178.5,-78 184.5,-72 190.5,-72 190.5,-72 220.5,-72 220.5,-72 226.5,-72 232.5,-78 232.5,-84 232.5,-84 232.5,-96 232.5,-96 232.5,-102 226.5,-108 220.5,-108"/>
<text text-anchor="middle" x="205.5" y="-87.5" font-family="sans" font-size="10.00">map</text>
</g>
<!-- 5&#45;&gt;0 -->
<g id="edge3" class="edge">
<title>5&#45;&gt;0</title>
<path fill="none" stroke="grey" stroke-width="2" d="M185.48,-71.7C175.37,-62.97 162.96,-52.24 151.98,-42.75"/>
<polygon fill="grey" stroke="grey" stroke-width="2" points="154.15,-39.99 144.29,-36.1 149.57,-45.29 154.15,-39.99"/>
</g>
<!-- 6 -->
<g id="node7" class="node">
<title>6</title>
<path fill="none" stroke="#56d8a9" stroke-width="2" d="M238.5,-180C238.5,-180 190.5,-180 190.5,-180 184.5,-180 178.5,-174 178.5,-168 178.5,-168 178.5,-156 178.5,-156 178.5,-150 184.5,-144 190.5,-144 190.5,-144 238.5,-144 238.5,-144 244.5,-144 250.5,-150 250.5,-156 250.5,-156 250.5,-168 250.5,-168 250.5,-174 244.5,-180 238.5,-180"/>
<text text-anchor="middle" x="214.5" y="-165" font-family="sans" font-size="10.00">trim</text>
<text text-anchor="middle" x="214.5" y="-154" font-family="sans" font-size="10.00">smp: smpG</text>
</g>
<!-- 6&#45;&gt;5 -->
<g id="edge6" class="edge">
<title>6&#45;&gt;5</title>
<path fill="none" stroke="grey" stroke-width="2" d="M212.28,-143.7C211.28,-135.98 210.09,-126.71 208.99,-118.11"/>
<polygon fill="grey" stroke="grey" stroke-width="2" points="212.45,-117.58 207.7,-108.1 205.5,-118.47 212.45,-117.58"/>
</g>
</g>
</svg>
