<?xml version="1.0" encoding="utf-8" standalone="no"?>
<!DOCTYPE svg PUBLIC "-//W3C//DTD SVG 1.1//EN"
  "http://www.w3.org/Graphics/SVG/1.1/DTD/svg11.dtd">
<!-- Created with matplotlib (https://matplotlib.org/) -->
<svg height="248.79625pt" version="1.1" viewBox="0 0 368.925 248.79625" width="368.925pt" xmlns="http://www.w3.org/2000/svg" xmlns:xlink="http://www.w3.org/1999/xlink">
 <defs>
  <style type="text/css">
*{stroke-linecap:butt;stroke-linejoin:round;}
  </style>
 </defs>
 <g id="figure_1">
  <g id="patch_1">
   <path d="M -0 248.79625 
L 368.925 248.79625 
L 368.925 0 
L -0 0 
z
" style="fill:none;"/>
  </g>
  <g id="axes_1">
   <g id="patch_2">
    <path d="M 26.925 224.64 
L 361.725 224.64 
L 361.725 7.2 
L 26.925 7.2 
z
" style="fill:#ffffff;"/>
   </g>
   <g id="matplotlib.axis_1">
    <g id="xtick_1">
     <g id="line2d_1">
      <defs>
       <path d="M 0 0 
L 0 3.5 
" id="m601549a8a7" style="stroke:#000000;stroke-width:0.8;"/>
      </defs>
      <g>
       <use style="stroke:#000000;stroke-width:0.8;" x="110.625" xlink:href="#m601549a8a7" y="224.64"/>
      </g>
     </g>
     <g id="text_1">
      <!-- score_m -->
      <defs>
       <path d="M 44.28125 53.078125 
L 44.28125 44.578125 
Q 40.484375 46.53125 36.375 47.5 
Q 32.28125 48.484375 27.875 48.484375 
Q 21.1875 48.484375 17.84375 46.4375 
Q 14.5 44.390625 14.5 40.28125 
Q 14.5 37.15625 16.890625 35.375 
Q 19.28125 33.59375 26.515625 31.984375 
L 29.59375 31.296875 
Q 39.15625 29.25 43.1875 25.515625 
Q 47.21875 21.78125 47.21875 15.09375 
Q 47.21875 7.46875 41.1875 3.015625 
Q 35.15625 -1.421875 24.609375 -1.421875 
Q 20.21875 -1.421875 15.453125 -0.5625 
Q 10.6875 0.296875 5.421875 2 
L 5.421875 11.28125 
Q 10.40625 8.6875 15.234375 7.390625 
Q 20.0625 6.109375 24.8125 6.109375 
Q 31.15625 6.109375 34.5625 8.28125 
Q 37.984375 10.453125 37.984375 14.40625 
Q 37.984375 18.0625 35.515625 20.015625 
Q 33.0625 21.96875 24.703125 23.78125 
L 21.578125 24.515625 
Q 13.234375 26.265625 9.515625 29.90625 
Q 5.8125 33.546875 5.8125 39.890625 
Q 5.8125 47.609375 11.28125 51.796875 
Q 16.75 56 26.8125 56 
Q 31.78125 56 36.171875 55.265625 
Q 40.578125 54.546875 44.28125 53.078125 
z
" id="DejaVuSans-115"/>
       <path d="M 48.78125 52.59375 
L 48.78125 44.1875 
Q 44.96875 46.296875 41.140625 47.34375 
Q 37.3125 48.390625 33.40625 48.390625 
Q 24.65625 48.390625 19.8125 42.84375 
Q 14.984375 37.3125 14.984375 27.296875 
Q 14.984375 17.28125 19.8125 11.734375 
Q 24.65625 6.203125 33.40625 6.203125 
Q 37.3125 6.203125 41.140625 7.25 
Q 44.96875 8.296875 48.78125 10.40625 
L 48.78125 2.09375 
Q 45.015625 0.34375 40.984375 -0.53125 
Q 36.96875 -1.421875 32.421875 -1.421875 
Q 20.0625 -1.421875 12.78125 6.34375 
Q 5.515625 14.109375 5.515625 27.296875 
Q 5.515625 40.671875 12.859375 48.328125 
Q 20.21875 56 33.015625 56 
Q 37.15625 56 41.109375 55.140625 
Q 45.0625 54.296875 48.78125 52.59375 
z
" id="DejaVuSans-99"/>
       <path d="M 30.609375 48.390625 
Q 23.390625 48.390625 19.1875 42.75 
Q 14.984375 37.109375 14.984375 27.296875 
Q 14.984375 17.484375 19.15625 11.84375 
Q 23.34375 6.203125 30.609375 6.203125 
Q 37.796875 6.203125 41.984375 11.859375 
Q 46.1875 17.53125 46.1875 27.296875 
Q 46.1875 37.015625 41.984375 42.703125 
Q 37.796875 48.390625 30.609375 48.390625 
z
M 30.609375 56 
Q 42.328125 56 49.015625 48.375 
Q 55.71875 40.765625 55.71875 27.296875 
Q 55.71875 13.875 49.015625 6.21875 
Q 42.328125 -1.421875 30.609375 -1.421875 
Q 18.84375 -1.421875 12.171875 6.21875 
Q 5.515625 13.875 5.515625 27.296875 
Q 5.515625 40.765625 12.171875 48.375 
Q 18.84375 56 30.609375 56 
z
" id="DejaVuSans-111"/>
       <path d="M 41.109375 46.296875 
Q 39.59375 47.171875 37.8125 47.578125 
Q 36.03125 48 33.890625 48 
Q 26.265625 48 22.1875 43.046875 
Q 18.109375 38.09375 18.109375 28.8125 
L 18.109375 0 
L 9.078125 0 
L 9.078125 54.6875 
L 18.109375 54.6875 
L 18.109375 46.1875 
Q 20.953125 51.171875 25.484375 53.578125 
Q 30.03125 56 36.53125 56 
Q 37.453125 56 38.578125 55.875 
Q 39.703125 55.765625 41.0625 55.515625 
z
" id="DejaVuSans-114"/>
       <path d="M 56.203125 29.59375 
L 56.203125 25.203125 
L 14.890625 25.203125 
Q 15.484375 15.921875 20.484375 11.0625 
Q 25.484375 6.203125 34.421875 6.203125 
Q 39.59375 6.203125 44.453125 7.46875 
Q 49.3125 8.734375 54.109375 11.28125 
L 54.109375 2.78125 
Q 49.265625 0.734375 44.1875 -0.34375 
Q 39.109375 -1.421875 33.890625 -1.421875 
Q 20.796875 -1.421875 13.15625 6.1875 
Q 5.515625 13.8125 5.515625 26.8125 
Q 5.515625 40.234375 12.765625 48.109375 
Q 20.015625 56 32.328125 56 
Q 43.359375 56 49.78125 48.890625 
Q 56.203125 41.796875 56.203125 29.59375 
z
M 47.21875 32.234375 
Q 47.125 39.59375 43.09375 43.984375 
Q 39.0625 48.390625 32.421875 48.390625 
Q 24.90625 48.390625 20.390625 44.140625 
Q 15.875 39.890625 15.1875 32.171875 
z
" id="DejaVuSans-101"/>
       <path d="M 50.984375 -16.609375 
L 50.984375 -23.578125 
L -0.984375 -23.578125 
L -0.984375 -16.609375 
z
" id="DejaVuSans-95"/>
       <path d="M 52 44.1875 
Q 55.375 50.25 60.0625 53.125 
Q 64.75 56 71.09375 56 
Q 79.640625 56 84.28125 50.015625 
Q 88.921875 44.046875 88.921875 33.015625 
L 88.921875 0 
L 79.890625 0 
L 79.890625 32.71875 
Q 79.890625 40.578125 77.09375 44.375 
Q 74.3125 48.1875 68.609375 48.1875 
Q 61.625 48.1875 57.5625 43.546875 
Q 53.515625 38.921875 53.515625 30.90625 
L 53.515625 0 
L 44.484375 0 
L 44.484375 32.71875 
Q 44.484375 40.625 41.703125 44.40625 
Q 38.921875 48.1875 33.109375 48.1875 
Q 26.21875 48.1875 22.15625 43.53125 
Q 18.109375 38.875 18.109375 30.90625 
L 18.109375 0 
L 9.078125 0 
L 9.078125 54.6875 
L 18.109375 54.6875 
L 18.109375 46.1875 
Q 21.1875 51.21875 25.484375 53.609375 
Q 29.78125 56 35.6875 56 
Q 41.65625 56 45.828125 52.96875 
Q 50 49.953125 52 44.1875 
z
" id="DejaVuSans-109"/>
      </defs>
      <g transform="translate(89.710938 238.960312)scale(0.1 -0.1)">
       <use xlink:href="#DejaVuSans-115"/>
       <use x="52.099609" xlink:href="#DejaVuSans-99"/>
       <use x="107.080078" xlink:href="#DejaVuSans-111"/>
       <use x="168.261719" xlink:href="#DejaVuSans-114"/>
       <use x="209.34375" xlink:href="#DejaVuSans-101"/>
       <use x="270.867188" xlink:href="#DejaVuSans-95"/>
       <use x="320.867188" xlink:href="#DejaVuSans-109"/>
      </g>
     </g>
    </g>
    <g id="xtick_2">
     <g id="line2d_2">
      <g>
       <use style="stroke:#000000;stroke-width:0.8;" x="278.025" xlink:href="#m601549a8a7" y="224.64"/>
      </g>
     </g>
     <g id="text_2">
      <!-- score_f -->
      <defs>
       <path d="M 37.109375 75.984375 
L 37.109375 68.5 
L 28.515625 68.5 
Q 23.6875 68.5 21.796875 66.546875 
Q 19.921875 64.59375 19.921875 59.515625 
L 19.921875 54.6875 
L 34.71875 54.6875 
L 34.71875 47.703125 
L 19.921875 47.703125 
L 19.921875 0 
L 10.890625 0 
L 10.890625 47.703125 
L 2.296875 47.703125 
L 2.296875 54.6875 
L 10.890625 54.6875 
L 10.890625 58.5 
Q 10.890625 67.625 15.140625 71.796875 
Q 19.390625 75.984375 28.609375 75.984375 
z
" id="DejaVuSans-102"/>
      </defs>
      <g transform="translate(260.221094 239.238437)scale(0.1 -0.1)">
       <use xlink:href="#DejaVuSans-115"/>
       <use x="52.099609" xlink:href="#DejaVuSans-99"/>
       <use x="107.080078" xlink:href="#DejaVuSans-111"/>
       <use x="168.261719" xlink:href="#DejaVuSans-114"/>
       <use x="209.34375" xlink:href="#DejaVuSans-101"/>
       <use x="270.867188" xlink:href="#DejaVuSans-95"/>
       <use x="320.867188" xlink:href="#DejaVuSans-102"/>
      </g>
     </g>
    </g>
   </g>
   <g id="matplotlib.axis_2">
    <g id="ytick_1">
     <g id="line2d_3">
      <defs>
       <path d="M 0 0 
L -3.5 0 
" id="m2eab537eb9" style="stroke:#000000;stroke-width:0.8;"/>
      </defs>
      <g>
       <use style="stroke:#000000;stroke-width:0.8;" x="26.925" xlink:href="#m2eab537eb9" y="209.968443"/>
      </g>
     </g>
     <g id="text_3">
      <!-- 35 -->
      <defs>
       <path d="M 40.578125 39.3125 
Q 47.65625 37.796875 51.625 33 
Q 55.609375 28.21875 55.609375 21.1875 
Q 55.609375 10.40625 48.1875 4.484375 
Q 40.765625 -1.421875 27.09375 -1.421875 
Q 22.515625 -1.421875 17.65625 -0.515625 
Q 12.796875 0.390625 7.625 2.203125 
L 7.625 11.71875 
Q 11.71875 9.328125 16.59375 8.109375 
Q 21.484375 6.890625 26.8125 6.890625 
Q 36.078125 6.890625 40.9375 10.546875 
Q 45.796875 14.203125 45.796875 21.1875 
Q 45.796875 27.640625 41.28125 31.265625 
Q 36.765625 34.90625 28.71875 34.90625 
L 20.21875 34.90625 
L 20.21875 43.015625 
L 29.109375 43.015625 
Q 36.375 43.015625 40.234375 45.921875 
Q 44.09375 48.828125 44.09375 54.296875 
Q 44.09375 59.90625 40.109375 62.90625 
Q 36.140625 65.921875 28.71875 65.921875 
Q 24.65625 65.921875 20.015625 65.03125 
Q 15.375 64.15625 9.8125 62.3125 
L 9.8125 71.09375 
Q 15.4375 72.65625 20.34375 73.4375 
Q 25.25 74.21875 29.59375 74.21875 
Q 40.828125 74.21875 47.359375 69.109375 
Q 53.90625 64.015625 53.90625 55.328125 
Q 53.90625 49.265625 50.4375 45.09375 
Q 46.96875 40.921875 40.578125 39.3125 
z
" id="DejaVuSans-51"/>
       <path d="M 10.796875 72.90625 
L 49.515625 72.90625 
L 49.515625 64.59375 
L 19.828125 64.59375 
L 19.828125 46.734375 
Q 21.96875 47.46875 24.109375 47.828125 
Q 26.265625 48.1875 28.421875 48.1875 
Q 40.625 48.1875 47.75 41.5 
Q 54.890625 34.8125 54.890625 23.390625 
Q 54.890625 11.625 47.5625 5.09375 
Q 40.234375 -1.421875 26.90625 -1.421875 
Q 22.3125 -1.421875 17.546875 -0.640625 
Q 12.796875 0.140625 7.71875 1.703125 
L 7.71875 11.625 
Q 12.109375 9.234375 16.796875 8.0625 
Q 21.484375 6.890625 26.703125 6.890625 
Q 35.15625 6.890625 40.078125 11.328125 
Q 45.015625 15.765625 45.015625 23.390625 
Q 45.015625 31 40.078125 35.4375 
Q 35.15625 39.890625 26.703125 39.890625 
Q 22.75 39.890625 18.8125 39.015625 
Q 14.890625 38.140625 10.796875 36.28125 
z
" id="DejaVuSans-53"/>
      </defs>
      <g transform="translate(7.2 213.767662)scale(0.1 -0.1)">
       <use xlink:href="#DejaVuSans-51"/>
       <use x="63.623047" xlink:href="#DejaVuSans-53"/>
      </g>
     </g>
    </g>
    <g id="ytick_2">
     <g id="line2d_4">
      <g>
       <use style="stroke:#000000;stroke-width:0.8;" x="26.925" xlink:href="#m2eab537eb9" y="185.344851"/>
      </g>
     </g>
     <g id="text_4">
      <!-- 40 -->
      <defs>
       <path d="M 37.796875 64.3125 
L 12.890625 25.390625 
L 37.796875 25.390625 
z
M 35.203125 72.90625 
L 47.609375 72.90625 
L 47.609375 25.390625 
L 58.015625 25.390625 
L 58.015625 17.1875 
L 47.609375 17.1875 
L 47.609375 0 
L 37.796875 0 
L 37.796875 17.1875 
L 4.890625 17.1875 
L 4.890625 26.703125 
z
" id="DejaVuSans-52"/>
       <path d="M 31.78125 66.40625 
Q 24.171875 66.40625 20.328125 58.90625 
Q 16.5 51.421875 16.5 36.375 
Q 16.5 21.390625 20.328125 13.890625 
Q 24.171875 6.390625 31.78125 6.390625 
Q 39.453125 6.390625 43.28125 13.890625 
Q 47.125 21.390625 47.125 36.375 
Q 47.125 51.421875 43.28125 58.90625 
Q 39.453125 66.40625 31.78125 66.40625 
z
M 31.78125 74.21875 
Q 44.046875 74.21875 50.515625 64.515625 
Q 56.984375 54.828125 56.984375 36.375 
Q 56.984375 17.96875 50.515625 8.265625 
Q 44.046875 -1.421875 31.78125 -1.421875 
Q 19.53125 -1.421875 13.0625 8.265625 
Q 6.59375 17.96875 6.59375 36.375 
Q 6.59375 54.828125 13.0625 64.515625 
Q 19.53125 74.21875 31.78125 74.21875 
z
" id="DejaVuSans-48"/>
      </defs>
      <g transform="translate(7.2 189.144069)scale(0.1 -0.1)">
       <use xlink:href="#DejaVuSans-52"/>
       <use x="63.623047" xlink:href="#DejaVuSans-48"/>
      </g>
     </g>
    </g>
    <g id="ytick_3">
     <g id="line2d_5">
      <g>
       <use style="stroke:#000000;stroke-width:0.8;" x="26.925" xlink:href="#m2eab537eb9" y="160.721258"/>
      </g>
     </g>
     <g id="text_5">
      <!-- 45 -->
      <g transform="translate(7.2 164.520477)scale(0.1 -0.1)">
       <use xlink:href="#DejaVuSans-52"/>
       <use x="63.623047" xlink:href="#DejaVuSans-53"/>
      </g>
     </g>
    </g>
    <g id="ytick_4">
     <g id="line2d_6">
      <g>
       <use style="stroke:#000000;stroke-width:0.8;" x="26.925" xlink:href="#m2eab537eb9" y="136.097666"/>
      </g>
     </g>
     <g id="text_6">
      <!-- 50 -->
      <g transform="translate(7.2 139.896885)scale(0.1 -0.1)">
       <use xlink:href="#DejaVuSans-53"/>
       <use x="63.623047" xlink:href="#DejaVuSans-48"/>
      </g>
     </g>
    </g>
    <g id="ytick_5">
     <g id="line2d_7">
      <g>
       <use style="stroke:#000000;stroke-width:0.8;" x="26.925" xlink:href="#m2eab537eb9" y="111.474074"/>
      </g>
     </g>
     <g id="text_7">
      <!-- 55 -->
      <g transform="translate(7.2 115.273292)scale(0.1 -0.1)">
       <use xlink:href="#DejaVuSans-53"/>
       <use x="63.623047" xlink:href="#DejaVuSans-53"/>
      </g>
     </g>
    </g>
    <g id="ytick_6">
     <g id="line2d_8">
      <g>
       <use style="stroke:#000000;stroke-width:0.8;" x="26.925" xlink:href="#m2eab537eb9" y="86.850481"/>
      </g>
     </g>
     <g id="text_8">
      <!-- 60 -->
      <defs>
       <path d="M 33.015625 40.375 
Q 26.375 40.375 22.484375 35.828125 
Q 18.609375 31.296875 18.609375 23.390625 
Q 18.609375 15.53125 22.484375 10.953125 
Q 26.375 6.390625 33.015625 6.390625 
Q 39.65625 6.390625 43.53125 10.953125 
Q 47.40625 15.53125 47.40625 23.390625 
Q 47.40625 31.296875 43.53125 35.828125 
Q 39.65625 40.375 33.015625 40.375 
z
M 52.59375 71.296875 
L 52.59375 62.3125 
Q 48.875 64.0625 45.09375 64.984375 
Q 41.3125 65.921875 37.59375 65.921875 
Q 27.828125 65.921875 22.671875 59.328125 
Q 17.53125 52.734375 16.796875 39.40625 
Q 19.671875 43.65625 24.015625 45.921875 
Q 28.375 48.1875 33.59375 48.1875 
Q 44.578125 48.1875 50.953125 41.515625 
Q 57.328125 34.859375 57.328125 23.390625 
Q 57.328125 12.15625 50.6875 5.359375 
Q 44.046875 -1.421875 33.015625 -1.421875 
Q 20.359375 -1.421875 13.671875 8.265625 
Q 6.984375 17.96875 6.984375 36.375 
Q 6.984375 53.65625 15.1875 63.9375 
Q 23.390625 74.21875 37.203125 74.21875 
Q 40.921875 74.21875 44.703125 73.484375 
Q 48.484375 72.75 52.59375 71.296875 
z
" id="DejaVuSans-54"/>
      </defs>
      <g transform="translate(7.2 90.6497)scale(0.1 -0.1)">
       <use xlink:href="#DejaVuSans-54"/>
       <use x="63.623047" xlink:href="#DejaVuSans-48"/>
      </g>
     </g>
    </g>
    <g id="ytick_7">
     <g id="line2d_9">
      <g>
       <use style="stroke:#000000;stroke-width:0.8;" x="26.925" xlink:href="#m2eab537eb9" y="62.226889"/>
      </g>
     </g>
     <g id="text_9">
      <!-- 65 -->
      <g transform="translate(7.2 66.026108)scale(0.1 -0.1)">
       <use xlink:href="#DejaVuSans-54"/>
       <use x="63.623047" xlink:href="#DejaVuSans-53"/>
      </g>
     </g>
    </g>
    <g id="ytick_8">
     <g id="line2d_10">
      <g>
       <use style="stroke:#000000;stroke-width:0.8;" x="26.925" xlink:href="#m2eab537eb9" y="37.603297"/>
      </g>
     </g>
     <g id="text_10">
      <!-- 70 -->
      <defs>
       <path d="M 8.203125 72.90625 
L 55.078125 72.90625 
L 55.078125 68.703125 
L 28.609375 0 
L 18.3125 0 
L 43.21875 64.59375 
L 8.203125 64.59375 
z
" id="DejaVuSans-55"/>
      </defs>
      <g transform="translate(7.2 41.402515)scale(0.1 -0.1)">
       <use xlink:href="#DejaVuSans-55"/>
       <use x="63.623047" xlink:href="#DejaVuSans-48"/>
      </g>
     </g>
    </g>
    <g id="ytick_9">
     <g id="line2d_11">
      <g>
       <use style="stroke:#000000;stroke-width:0.8;" x="26.925" xlink:href="#m2eab537eb9" y="12.979704"/>
      </g>
     </g>
     <g id="text_11">
      <!-- 75 -->
      <g transform="translate(7.2 16.778923)scale(0.1 -0.1)">
       <use xlink:href="#DejaVuSans-55"/>
       <use x="63.623047" xlink:href="#DejaVuSans-53"/>
      </g>
     </g>
    </g>
   </g>
   <g id="line2d_12">
    <path clip-path="url(#pcce278294a)" d="M 98.07 164.82519 
L 123.18 164.82519 
L 123.18 101.214244 
L 98.07 101.214244 
L 98.07 164.82519 
" style="fill:none;stroke:#1f77b4;stroke-linecap:square;"/>
   </g>
   <g id="line2d_13">
    <path clip-path="url(#pcce278294a)" d="M 110.625 164.82519 
L 110.625 214.756364 
" style="fill:none;stroke:#1f77b4;stroke-linecap:square;"/>
   </g>
   <g id="line2d_14">
    <path clip-path="url(#pcce278294a)" d="M 110.625 101.214244 
L 110.625 17.083636 
" style="fill:none;stroke:#1f77b4;stroke-linecap:square;"/>
   </g>
   <g id="line2d_15">
    <path clip-path="url(#pcce278294a)" d="M 104.3475 214.756364 
L 116.9025 214.756364 
" style="fill:none;stroke:#000000;stroke-linecap:square;"/>
   </g>
   <g id="line2d_16">
    <path clip-path="url(#pcce278294a)" d="M 104.3475 17.083636 
L 116.9025 17.083636 
" style="fill:none;stroke:#000000;stroke-linecap:square;"/>
   </g>
   <g id="line2d_17"/>
   <g id="line2d_18">
    <path clip-path="url(#pcce278294a)" d="M 265.47 173.717043 
L 290.58 173.717043 
L 290.58 129.941768 
L 265.47 129.941768 
L 265.47 173.717043 
" style="fill:none;stroke:#1f77b4;stroke-linecap:square;"/>
   </g>
   <g id="line2d_19">
    <path clip-path="url(#pcce278294a)" d="M 278.025 173.717043 
L 278.025 214.072375 
" style="fill:none;stroke:#1f77b4;stroke-linecap:square;"/>
   </g>
   <g id="line2d_20">
    <path clip-path="url(#pcce278294a)" d="M 278.025 129.941768 
L 278.025 64.278855 
" style="fill:none;stroke:#1f77b4;stroke-linecap:square;"/>
   </g>
   <g id="line2d_21">
    <path clip-path="url(#pcce278294a)" d="M 271.7475 214.072375 
L 284.3025 214.072375 
" style="fill:none;stroke:#000000;stroke-linecap:square;"/>
   </g>
   <g id="line2d_22">
    <path clip-path="url(#pcce278294a)" d="M 271.7475 64.278855 
L 284.3025 64.278855 
" style="fill:none;stroke:#000000;stroke-linecap:square;"/>
   </g>
   <g id="line2d_23">
    <defs>
     <path d="M 0 3 
C 0.795609 3 1.55874 2.683901 2.12132 2.12132 
C 2.683901 1.55874 3 0.795609 3 0 
C 3 -0.795609 2.683901 -1.55874 2.12132 -2.12132 
C 1.55874 -2.683901 0.795609 -3 0 -3 
C -0.795609 -3 -1.55874 -2.683901 -2.12132 -2.12132 
C -2.683901 -1.55874 -3 -0.795609 -3 0 
C -3 0.795609 -2.683901 1.55874 -2.12132 2.12132 
C -1.55874 2.683901 -0.795609 3 0 3 
z
" id="m4398f5fc04" style="stroke:#000000;"/>
    </defs>
    <g clip-path="url(#pcce278294a)">
     <use style="fill-opacity:0;stroke:#000000;" x="278.025" xlink:href="#m4398f5fc04" y="51.967059"/>
     <use style="fill-opacity:0;stroke:#000000;" x="278.025" xlink:href="#m4398f5fc04" y="54.019025"/>
     <use style="fill-opacity:0;stroke:#000000;" x="278.025" xlink:href="#m4398f5fc04" y="39.655263"/>
     <use style="fill-opacity:0;stroke:#000000;" x="278.025" xlink:href="#m4398f5fc04" y="28.027455"/>
     <use style="fill-opacity:0;stroke:#000000;" x="278.025" xlink:href="#m4398f5fc04" y="61.5429"/>
     <use style="fill-opacity:0;stroke:#000000;" x="278.025" xlink:href="#m4398f5fc04" y="56.070991"/>
     <use style="fill-opacity:0;stroke:#000000;" x="278.025" xlink:href="#m4398f5fc04" y="51.967059"/>
     <use style="fill-opacity:0;stroke:#000000;" x="278.025" xlink:href="#m4398f5fc04" y="58.122957"/>
     <use style="fill-opacity:0;stroke:#000000;" x="278.025" xlink:href="#m4398f5fc04" y="52.651048"/>
     <use style="fill-opacity:0;stroke:#000000;" x="278.025" xlink:href="#m4398f5fc04" y="63.594866"/>
     <use style="fill-opacity:0;stroke:#000000;" x="278.025" xlink:href="#m4398f5fc04" y="62.226889"/>
     <use style="fill-opacity:0;stroke:#000000;" x="278.025" xlink:href="#m4398f5fc04" y="55.387002"/>
     <use style="fill-opacity:0;stroke:#000000;" x="278.025" xlink:href="#m4398f5fc04" y="57.438968"/>
     <use style="fill-opacity:0;stroke:#000000;" x="278.025" xlink:href="#m4398f5fc04" y="52.651048"/>
     <use style="fill-opacity:0;stroke:#000000;" x="278.025" xlink:href="#m4398f5fc04" y="61.5429"/>
     <use style="fill-opacity:0;stroke:#000000;" x="278.025" xlink:href="#m4398f5fc04" y="59.490934"/>
     <use style="fill-opacity:0;stroke:#000000;" x="278.025" xlink:href="#m4398f5fc04" y="39.655263"/>
     <use style="fill-opacity:0;stroke:#000000;" x="278.025" xlink:href="#m4398f5fc04" y="63.594866"/>
     <use style="fill-opacity:0;stroke:#000000;" x="278.025" xlink:href="#m4398f5fc04" y="62.910878"/>
     <use style="fill-opacity:0;stroke:#000000;" x="278.025" xlink:href="#m4398f5fc04" y="61.5429"/>
     <use style="fill-opacity:0;stroke:#000000;" x="278.025" xlink:href="#m4398f5fc04" y="52.651048"/>
     <use style="fill-opacity:0;stroke:#000000;" x="278.025" xlink:href="#m4398f5fc04" y="39.655263"/>
     <use style="fill-opacity:0;stroke:#000000;" x="278.025" xlink:href="#m4398f5fc04" y="47.179138"/>
     <use style="fill-opacity:0;stroke:#000000;" x="278.025" xlink:href="#m4398f5fc04" y="60.858912"/>
     <use style="fill-opacity:0;stroke:#000000;" x="278.025" xlink:href="#m4398f5fc04" y="48.547115"/>
     <use style="fill-opacity:0;stroke:#000000;" x="278.025" xlink:href="#m4398f5fc04" y="43.075206"/>
     <use style="fill-opacity:0;stroke:#000000;" x="278.025" xlink:href="#m4398f5fc04" y="43.759195"/>
     <use style="fill-opacity:0;stroke:#000000;" x="278.025" xlink:href="#m4398f5fc04" y="55.387002"/>
     <use style="fill-opacity:0;stroke:#000000;" x="278.025" xlink:href="#m4398f5fc04" y="47.179138"/>
     <use style="fill-opacity:0;stroke:#000000;" x="278.025" xlink:href="#m4398f5fc04" y="54.019025"/>
     <use style="fill-opacity:0;stroke:#000000;" x="278.025" xlink:href="#m4398f5fc04" y="41.707229"/>
     <use style="fill-opacity:0;stroke:#000000;" x="278.025" xlink:href="#m4398f5fc04" y="56.070991"/>
     <use style="fill-opacity:0;stroke:#000000;" x="278.025" xlink:href="#m4398f5fc04" y="56.75498"/>
     <use style="fill-opacity:0;stroke:#000000;" x="278.025" xlink:href="#m4398f5fc04" y="42.391217"/>
     <use style="fill-opacity:0;stroke:#000000;" x="278.025" xlink:href="#m4398f5fc04" y="59.490934"/>
     <use style="fill-opacity:0;stroke:#000000;" x="278.025" xlink:href="#m4398f5fc04" y="57.438968"/>
     <use style="fill-opacity:0;stroke:#000000;" x="278.025" xlink:href="#m4398f5fc04" y="47.179138"/>
     <use style="fill-opacity:0;stroke:#000000;" x="278.025" xlink:href="#m4398f5fc04" y="62.226889"/>
     <use style="fill-opacity:0;stroke:#000000;" x="278.025" xlink:href="#m4398f5fc04" y="33.499365"/>
     <use style="fill-opacity:0;stroke:#000000;" x="278.025" xlink:href="#m4398f5fc04" y="45.811161"/>
     <use style="fill-opacity:0;stroke:#000000;" x="278.025" xlink:href="#m4398f5fc04" y="57.438968"/>
     <use style="fill-opacity:0;stroke:#000000;" x="278.025" xlink:href="#m4398f5fc04" y="45.811161"/>
     <use style="fill-opacity:0;stroke:#000000;" x="278.025" xlink:href="#m4398f5fc04" y="58.806946"/>
     <use style="fill-opacity:0;stroke:#000000;" x="278.025" xlink:href="#m4398f5fc04" y="53.335036"/>
     <use style="fill-opacity:0;stroke:#000000;" x="278.025" xlink:href="#m4398f5fc04" y="49.915093"/>
     <use style="fill-opacity:0;stroke:#000000;" x="278.025" xlink:href="#m4398f5fc04" y="29.395433"/>
     <use style="fill-opacity:0;stroke:#000000;" x="278.025" xlink:href="#m4398f5fc04" y="26.659478"/>
     <use style="fill-opacity:0;stroke:#000000;" x="278.025" xlink:href="#m4398f5fc04" y="47.863127"/>
     <use style="fill-opacity:0;stroke:#000000;" x="278.025" xlink:href="#m4398f5fc04" y="50.599081"/>
     <use style="fill-opacity:0;stroke:#000000;" x="278.025" xlink:href="#m4398f5fc04" y="51.28307"/>
     <use style="fill-opacity:0;stroke:#000000;" x="278.025" xlink:href="#m4398f5fc04" y="60.858912"/>
     <use style="fill-opacity:0;stroke:#000000;" x="278.025" xlink:href="#m4398f5fc04" y="52.651048"/>
     <use style="fill-opacity:0;stroke:#000000;" x="278.025" xlink:href="#m4398f5fc04" y="38.971274"/>
     <use style="fill-opacity:0;stroke:#000000;" x="278.025" xlink:href="#m4398f5fc04" y="57.438968"/>
     <use style="fill-opacity:0;stroke:#000000;" x="278.025" xlink:href="#m4398f5fc04" y="44.443183"/>
     <use style="fill-opacity:0;stroke:#000000;" x="278.025" xlink:href="#m4398f5fc04" y="44.443183"/>
     <use style="fill-opacity:0;stroke:#000000;" x="278.025" xlink:href="#m4398f5fc04" y="44.443183"/>
     <use style="fill-opacity:0;stroke:#000000;" x="278.025" xlink:href="#m4398f5fc04" y="60.858912"/>
     <use style="fill-opacity:0;stroke:#000000;" x="278.025" xlink:href="#m4398f5fc04" y="56.75498"/>
     <use style="fill-opacity:0;stroke:#000000;" x="278.025" xlink:href="#m4398f5fc04" y="41.707229"/>
     <use style="fill-opacity:0;stroke:#000000;" x="278.025" xlink:href="#m4398f5fc04" y="49.231104"/>
     <use style="fill-opacity:0;stroke:#000000;" x="278.025" xlink:href="#m4398f5fc04" y="49.915093"/>
     <use style="fill-opacity:0;stroke:#000000;" x="278.025" xlink:href="#m4398f5fc04" y="49.915093"/>
     <use style="fill-opacity:0;stroke:#000000;" x="278.025" xlink:href="#m4398f5fc04" y="60.858912"/>
     <use style="fill-opacity:0;stroke:#000000;" x="278.025" xlink:href="#m4398f5fc04" y="56.75498"/>
     <use style="fill-opacity:0;stroke:#000000;" x="278.025" xlink:href="#m4398f5fc04" y="51.28307"/>
     <use style="fill-opacity:0;stroke:#000000;" x="278.025" xlink:href="#m4398f5fc04" y="62.910878"/>
     <use style="fill-opacity:0;stroke:#000000;" x="278.025" xlink:href="#m4398f5fc04" y="51.28307"/>
     <use style="fill-opacity:0;stroke:#000000;" x="278.025" xlink:href="#m4398f5fc04" y="56.070991"/>
     <use style="fill-opacity:0;stroke:#000000;" x="278.025" xlink:href="#m4398f5fc04" y="45.811161"/>
     <use style="fill-opacity:0;stroke:#000000;" x="278.025" xlink:href="#m4398f5fc04" y="39.655263"/>
     <use style="fill-opacity:0;stroke:#000000;" x="278.025" xlink:href="#m4398f5fc04" y="39.655263"/>
     <use style="fill-opacity:0;stroke:#000000;" x="278.025" xlink:href="#m4398f5fc04" y="60.174923"/>
     <use style="fill-opacity:0;stroke:#000000;" x="278.025" xlink:href="#m4398f5fc04" y="51.967059"/>
     <use style="fill-opacity:0;stroke:#000000;" x="278.025" xlink:href="#m4398f5fc04" y="58.806946"/>
     <use style="fill-opacity:0;stroke:#000000;" x="278.025" xlink:href="#m4398f5fc04" y="60.174923"/>
     <use style="fill-opacity:0;stroke:#000000;" x="278.025" xlink:href="#m4398f5fc04" y="54.703014"/>
     <use style="fill-opacity:0;stroke:#000000;" x="278.025" xlink:href="#m4398f5fc04" y="46.495149"/>
     <use style="fill-opacity:0;stroke:#000000;" x="278.025" xlink:href="#m4398f5fc04" y="62.226889"/>
     <use style="fill-opacity:0;stroke:#000000;" x="278.025" xlink:href="#m4398f5fc04" y="56.75498"/>
     <use style="fill-opacity:0;stroke:#000000;" x="278.025" xlink:href="#m4398f5fc04" y="54.019025"/>
     <use style="fill-opacity:0;stroke:#000000;" x="278.025" xlink:href="#m4398f5fc04" y="49.231104"/>
     <use style="fill-opacity:0;stroke:#000000;" x="278.025" xlink:href="#m4398f5fc04" y="59.490934"/>
     <use style="fill-opacity:0;stroke:#000000;" x="278.025" xlink:href="#m4398f5fc04" y="43.075206"/>
     <use style="fill-opacity:0;stroke:#000000;" x="278.025" xlink:href="#m4398f5fc04" y="29.395433"/>
     <use style="fill-opacity:0;stroke:#000000;" x="278.025" xlink:href="#m4398f5fc04" y="56.070991"/>
     <use style="fill-opacity:0;stroke:#000000;" x="278.025" xlink:href="#m4398f5fc04" y="56.75498"/>
     <use style="fill-opacity:0;stroke:#000000;" x="278.025" xlink:href="#m4398f5fc04" y="53.335036"/>
     <use style="fill-opacity:0;stroke:#000000;" x="278.025" xlink:href="#m4398f5fc04" y="50.599081"/>
     <use style="fill-opacity:0;stroke:#000000;" x="278.025" xlink:href="#m4398f5fc04" y="63.594866"/>
     <use style="fill-opacity:0;stroke:#000000;" x="278.025" xlink:href="#m4398f5fc04" y="52.651048"/>
     <use style="fill-opacity:0;stroke:#000000;" x="278.025" xlink:href="#m4398f5fc04" y="45.811161"/>
     <use style="fill-opacity:0;stroke:#000000;" x="278.025" xlink:href="#m4398f5fc04" y="60.858912"/>
     <use style="fill-opacity:0;stroke:#000000;" x="278.025" xlink:href="#m4398f5fc04" y="60.858912"/>
     <use style="fill-opacity:0;stroke:#000000;" x="278.025" xlink:href="#m4398f5fc04" y="63.594866"/>
     <use style="fill-opacity:0;stroke:#000000;" x="278.025" xlink:href="#m4398f5fc04" y="60.858912"/>
     <use style="fill-opacity:0;stroke:#000000;" x="278.025" xlink:href="#m4398f5fc04" y="57.438968"/>
     <use style="fill-opacity:0;stroke:#000000;" x="278.025" xlink:href="#m4398f5fc04" y="59.490934"/>
     <use style="fill-opacity:0;stroke:#000000;" x="278.025" xlink:href="#m4398f5fc04" y="62.226889"/>
     <use style="fill-opacity:0;stroke:#000000;" x="278.025" xlink:href="#m4398f5fc04" y="55.387002"/>
     <use style="fill-opacity:0;stroke:#000000;" x="278.025" xlink:href="#m4398f5fc04" y="57.438968"/>
     <use style="fill-opacity:0;stroke:#000000;" x="278.025" xlink:href="#m4398f5fc04" y="62.910878"/>
     <use style="fill-opacity:0;stroke:#000000;" x="278.025" xlink:href="#m4398f5fc04" y="58.806946"/>
     <use style="fill-opacity:0;stroke:#000000;" x="278.025" xlink:href="#m4398f5fc04" y="61.5429"/>
     <use style="fill-opacity:0;stroke:#000000;" x="278.025" xlink:href="#m4398f5fc04" y="43.759195"/>
     <use style="fill-opacity:0;stroke:#000000;" x="278.025" xlink:href="#m4398f5fc04" y="41.707229"/>
     <use style="fill-opacity:0;stroke:#000000;" x="278.025" xlink:href="#m4398f5fc04" y="57.438968"/>
     <use style="fill-opacity:0;stroke:#000000;" x="278.025" xlink:href="#m4398f5fc04" y="43.759195"/>
     <use style="fill-opacity:0;stroke:#000000;" x="278.025" xlink:href="#m4398f5fc04" y="63.594866"/>
     <use style="fill-opacity:0;stroke:#000000;" x="278.025" xlink:href="#m4398f5fc04" y="55.387002"/>
     <use style="fill-opacity:0;stroke:#000000;" x="278.025" xlink:href="#m4398f5fc04" y="57.438968"/>
     <use style="fill-opacity:0;stroke:#000000;" x="278.025" xlink:href="#m4398f5fc04" y="47.863127"/>
     <use style="fill-opacity:0;stroke:#000000;" x="278.025" xlink:href="#m4398f5fc04" y="62.226889"/>
     <use style="fill-opacity:0;stroke:#000000;" x="278.025" xlink:href="#m4398f5fc04" y="50.599081"/>
     <use style="fill-opacity:0;stroke:#000000;" x="278.025" xlink:href="#m4398f5fc04" y="52.651048"/>
     <use style="fill-opacity:0;stroke:#000000;" x="278.025" xlink:href="#m4398f5fc04" y="45.127172"/>
     <use style="fill-opacity:0;stroke:#000000;" x="278.025" xlink:href="#m4398f5fc04" y="61.5429"/>
     <use style="fill-opacity:0;stroke:#000000;" x="278.025" xlink:href="#m4398f5fc04" y="52.651048"/>
     <use style="fill-opacity:0;stroke:#000000;" x="278.025" xlink:href="#m4398f5fc04" y="43.075206"/>
     <use style="fill-opacity:0;stroke:#000000;" x="278.025" xlink:href="#m4398f5fc04" y="54.703014"/>
     <use style="fill-opacity:0;stroke:#000000;" x="278.025" xlink:href="#m4398f5fc04" y="36.235319"/>
     <use style="fill-opacity:0;stroke:#000000;" x="278.025" xlink:href="#m4398f5fc04" y="36.235319"/>
     <use style="fill-opacity:0;stroke:#000000;" x="278.025" xlink:href="#m4398f5fc04" y="58.806946"/>
     <use style="fill-opacity:0;stroke:#000000;" x="278.025" xlink:href="#m4398f5fc04" y="41.707229"/>
     <use style="fill-opacity:0;stroke:#000000;" x="278.025" xlink:href="#m4398f5fc04" y="37.603297"/>
     <use style="fill-opacity:0;stroke:#000000;" x="278.025" xlink:href="#m4398f5fc04" y="49.915093"/>
     <use style="fill-opacity:0;stroke:#000000;" x="278.025" xlink:href="#m4398f5fc04" y="49.915093"/>
     <use style="fill-opacity:0;stroke:#000000;" x="278.025" xlink:href="#m4398f5fc04" y="44.443183"/>
     <use style="fill-opacity:0;stroke:#000000;" x="278.025" xlink:href="#m4398f5fc04" y="45.811161"/>
     <use style="fill-opacity:0;stroke:#000000;" x="278.025" xlink:href="#m4398f5fc04" y="61.5429"/>
     <use style="fill-opacity:0;stroke:#000000;" x="278.025" xlink:href="#m4398f5fc04" y="55.387002"/>
     <use style="fill-opacity:0;stroke:#000000;" x="278.025" xlink:href="#m4398f5fc04" y="38.971274"/>
     <use style="fill-opacity:0;stroke:#000000;" x="278.025" xlink:href="#m4398f5fc04" y="54.019025"/>
     <use style="fill-opacity:0;stroke:#000000;" x="278.025" xlink:href="#m4398f5fc04" y="49.231104"/>
     <use style="fill-opacity:0;stroke:#000000;" x="278.025" xlink:href="#m4398f5fc04" y="37.603297"/>
     <use style="fill-opacity:0;stroke:#000000;" x="278.025" xlink:href="#m4398f5fc04" y="62.910878"/>
     <use style="fill-opacity:0;stroke:#000000;" x="278.025" xlink:href="#m4398f5fc04" y="48.547115"/>
     <use style="fill-opacity:0;stroke:#000000;" x="278.025" xlink:href="#m4398f5fc04" y="49.915093"/>
     <use style="fill-opacity:0;stroke:#000000;" x="278.025" xlink:href="#m4398f5fc04" y="46.495149"/>
     <use style="fill-opacity:0;stroke:#000000;" x="278.025" xlink:href="#m4398f5fc04" y="37.603297"/>
    </g>
   </g>
   <g id="line2d_24">
    <path clip-path="url(#pcce278294a)" d="M 98.07 137.465643 
L 123.18 137.465643 
" style="fill:none;stroke:#2ca02c;stroke-linecap:square;"/>
   </g>
   <g id="line2d_25">
    <path clip-path="url(#pcce278294a)" d="M 265.47 156.617326 
L 290.58 156.617326 
" style="fill:none;stroke:#2ca02c;stroke-linecap:square;"/>
   </g>
   <g id="patch_3">
    <path d="M 26.925 224.64 
L 26.925 7.2 
" style="fill:none;stroke:#000000;stroke-linecap:square;stroke-linejoin:miter;stroke-width:0.8;"/>
   </g>
   <g id="patch_4">
    <path d="M 361.725 224.64 
L 361.725 7.2 
" style="fill:none;stroke:#000000;stroke-linecap:square;stroke-linejoin:miter;stroke-width:0.8;"/>
   </g>
   <g id="patch_5">
    <path d="M 26.925 224.64 
L 361.725 224.64 
" style="fill:none;stroke:#000000;stroke-linecap:square;stroke-linejoin:miter;stroke-width:0.8;"/>
   </g>
   <g id="patch_6">
    <path d="M 26.925 7.2 
L 361.725 7.2 
" style="fill:none;stroke:#000000;stroke-linecap:square;stroke-linejoin:miter;stroke-width:0.8;"/>
   </g>
  </g>
 </g>
 <defs>
  <clipPath id="pcce278294a">
   <rect height="217.44" width="334.8" x="26.925" y="7.2"/>
  </clipPath>
 </defs>
</svg>
